<svg version="1.1" id="Layer_1" xmlns="http://www.w3.org/2000/svg" xmlns:xlink="http://www.w3.org/1999/xlink" x="0px" y="0px"
	 width="100%" viewBox="0 0 240 496" enable-background="new 0 0 240 496" xml:space="preserve">
<path  opacity="1.000000" stroke="none" 
	d="
M148.000000,1.000000 
	C152.356903,1.000000 156.713806,1.000000 161.778839,1.247695 
	C167.757584,4.635093 167.480072,9.822832 167.088852,14.808291 
	C165.867249,30.375574 165.206451,46.004494 162.559204,61.430332 
	C161.904648,65.244499 163.395218,67.265327 167.133911,67.471909 
	C171.011337,67.686157 174.697311,68.677528 178.333801,69.862106 
	C196.535385,75.791237 199.911728,94.553200 191.261658,108.315643 
	C187.931351,113.614220 183.371658,117.713387 178.213089,121.228508 
	C176.510178,122.388885 174.254227,123.017616 173.114380,125.751213 
	C183.381638,129.003754 184.666367,137.234634 183.076309,145.903259 
	C179.327820,166.339417 175.805191,186.803268 172.874252,207.370819 
	C170.477448,224.190186 168.614395,241.020905 169.927261,258.077423 
	C170.810822,269.556488 169.999680,281.017426 168.727859,292.456085 
	C166.426407,313.155396 161.771927,333.428680 157.863602,353.838501 
	C157.475464,355.865448 156.473999,358.031189 158.643539,360.055084 
	C160.697357,359.651825 161.994980,358.048187 163.407776,356.731262 
	C166.450653,353.894867 169.297134,350.842926 172.401291,348.078247 
	C175.966904,344.902557 179.987762,346.308472 183.704926,347.685760 
	C187.481628,349.085052 186.388107,352.624512 186.283096,355.490753 
	C186.135284,359.526215 184.132965,362.759216 181.280991,365.511200 
	C173.131851,373.374603 165.216629,381.500793 156.761414,389.019836 
	C150.528946,394.562195 146.244186,400.756348 145.130142,409.177338 
	C144.565750,413.443542 143.062576,417.578156 140.996872,421.427917 
	C139.941254,423.395203 139.326248,425.497589 142.116394,426.243134 
	C147.290161,427.625519 146.798218,431.193115 145.733719,434.906403 
	C143.838501,441.517578 141.015976,447.761475 136.784378,453.199829 
	C127.069939,465.684448 117.176575,478.029724 107.384964,490.454529 
	C105.848076,492.404724 104.156311,494.316864 104.000000,497.000000 
	C97.312355,497.000000 90.624710,497.000000 83.322235,496.695679 
	C81.960541,494.981384 80.667496,494.185516 79.288979,493.601410 
	C64.143425,487.183594 48.916542,480.952728 33.849541,474.356323 
	C23.184320,469.687042 12.093534,466.367493 1.000000,463.000000 
	C1.000000,461.933319 1.000000,460.866669 1.262595,459.196716 
	C2.396357,457.819977 3.214219,456.974457 4.147074,456.284332 
	C12.017863,450.461761 15.905584,441.085327 23.327572,434.839386 
	C25.429413,433.070618 24.649195,430.681488 23.871067,428.354126 
	C20.525431,418.347290 18.947746,408.049957 18.601831,397.494141 
	C18.016102,379.620422 19.696894,361.981873 22.667412,344.362579 
	C26.873663,319.413696 31.336023,294.559357 39.508186,270.523865 
	C46.790390,249.105896 55.475605,228.187790 61.947552,206.476273 
	C69.740105,180.334457 76.447502,153.903214 83.579857,127.584381 
	C86.431061,117.063286 90.951271,113.409775 101.387894,112.623978 
	C105.268135,112.331825 107.076714,110.764328 107.128647,106.773170 
	C107.199203,101.350731 108.767296,96.291550 111.663589,91.658180 
	C116.493256,83.931885 123.240814,78.225304 131.400711,74.573181 
	C136.219666,72.416367 137.943405,69.154343 138.706955,64.390160 
	C141.529755,46.777256 142.794510,29.056671 142.606430,11.240441 
	C142.558044,6.658858 143.585373,3.039983 148.000000,1.000000 
M101.497330,129.844971 
	C99.343353,128.443848 97.167130,130.615433 95.250580,130.011154 
	C90.518524,128.519165 88.631599,131.371750 87.136292,134.820023 
	C86.284180,136.785049 85.884613,138.951004 85.328583,141.039078 
	C75.907631,176.417328 67.126350,211.987488 53.709614,246.164154 
	C43.278938,272.734375 35.550888,300.054596 30.911358,328.235504 
	C30.541143,330.484192 30.119383,332.694214 31.178234,334.999146 
	C32.784355,329.140717 33.750832,323.181244 34.986458,317.278076 
	C36.247154,311.255188 37.652290,305.256134 39.215431,299.304779 
	C40.777374,293.357941 42.508747,287.450104 44.358505,281.585968 
	C46.210567,275.714508 48.201122,269.881683 50.315536,264.099426 
	C52.319378,258.619568 53.344795,252.645767 57.569042,247.322372 
	C58.452557,250.589340 56.331486,252.486420 56.817253,255.451584 
	C60.199280,248.037308 62.079472,240.749298 65.821609,234.244263 
	C67.352051,231.583832 69.322678,229.573013 72.422249,229.635971 
	C77.361427,229.736282 82.469635,229.532700 85.856659,234.432022 
	C87.709579,237.112259 90.477753,236.323151 92.471741,234.764420 
	C94.688759,233.031387 95.628052,230.588577 93.207344,228.155594 
	C90.632759,228.459946 90.784485,231.987061 88.040070,231.875946 
	C87.430450,228.968689 90.968742,225.713638 86.581192,223.828934 
	C89.317764,221.256882 91.818466,221.354935 94.293015,222.965515 
	C99.173859,226.142227 98.754700,230.955917 97.830025,235.796646 
	C99.267097,235.992630 100.403442,236.865463 101.961777,236.194672 
	C100.030945,234.940811 98.133797,233.870407 99.322029,231.357803 
	C100.681740,228.482605 102.847839,230.273102 104.488060,230.784729 
	C107.492409,231.721909 110.469894,232.894745 113.251205,234.362320 
	C117.406334,236.554840 120.421646,239.963181 121.153824,244.707581 
	C121.785774,248.802490 122.240334,253.012299 122.031586,257.133759 
	C121.265572,272.258240 120.258224,287.391174 117.663353,302.325562 
	C112.338257,332.973511 106.308701,363.489777 99.749069,393.898590 
	C98.206528,401.049500 96.765343,408.241913 94.762894,415.268585 
	C92.619202,422.790924 86.777519,425.130371 80.947266,421.311768 
	C80.947754,420.447021 82.659134,420.694031 82.067940,419.332306 
	C77.973228,417.793671 73.764992,416.239410 69.578362,414.628967 
	C67.139664,413.690887 65.367729,413.651550 63.846027,416.474701 
	C62.205044,419.519135 59.480755,420.967560 54.913738,418.846313 
	C59.350601,416.680511 61.733486,414.433075 60.067448,410.359589 
	C56.894779,410.132172 57.007454,413.894501 54.168537,413.687653 
	C54.359276,412.127014 54.582462,410.844879 54.654770,409.554321 
	C54.725430,408.293213 54.310413,407.143494 52.910042,406.917236 
	C51.756298,406.730835 49.845982,407.017731 49.852467,407.912018 
	C49.884468,412.320801 47.083134,410.279694 45.514427,409.779663 
	C41.716549,408.569092 37.987747,407.087738 34.342915,405.464417 
	C29.511724,403.312714 26.746769,399.466034 26.657476,394.148712 
	C26.517733,385.826996 26.195431,377.497894 27.199131,369.186310 
	C28.251141,360.474609 29.105654,351.739044 30.046486,343.013916 
	C28.391886,345.111725 27.677631,347.403320 27.226109,349.851257 
	C25.078012,361.497406 23.589087,373.319061 23.719282,385.061737 
	C23.855221,397.322357 21.398228,410.420288 30.766970,421.170837 
	C33.571667,424.389160 36.068851,427.583252 39.914165,429.770508 
	C51.076759,436.119995 63.254684,439.891876 75.271004,444.023224 
	C81.345383,446.111664 87.458710,445.027100 93.220825,441.995819 
	C97.614441,439.684479 97.033051,435.287537 97.786926,431.562988 
	C104.481789,398.486298 110.987862,365.371368 117.681992,332.294525 
	C122.042000,310.750946 126.641853,289.125031 126.418304,267.119507 
	C126.116737,237.435333 130.505096,208.476089 136.285538,179.546814 
	C138.999649,165.963455 142.977295,152.524689 143.020187,139.406204 
	C129.228104,134.731949 115.923759,130.505127 101.497330,129.844971 
M161.477783,97.007324 
	C162.907242,102.871033 162.249268,109.187080 165.028259,114.748428 
	C173.308350,113.244644 183.548157,103.040688 184.729019,95.421272 
	C185.483261,90.554436 184.087921,86.443848 180.138489,83.552551 
	C176.064011,80.569710 171.354309,78.981400 166.311478,78.391266 
	C162.675156,77.965714 161.022781,79.533981 161.125931,83.149567 
	C161.248917,87.460091 161.318802,91.772125 161.477783,97.007324 
M134.910690,336.215363 
	C133.594223,342.902313 132.176010,349.571442 131.000061,356.283020 
	C130.311371,360.213470 132.071014,361.470459 135.830551,360.076355 
	C139.498550,358.716156 140.661041,355.972412 140.660873,352.235931 
	C140.660309,340.190033 142.213196,328.357300 145.904129,316.841217 
	C147.118866,313.051086 148.300110,309.236359 149.203690,305.364502 
	C150.018326,301.873688 147.798569,299.886536 144.804703,299.258209 
	C141.543365,298.573761 141.705704,301.638123 141.317612,303.557617 
	C139.175919,314.150360 137.171844,324.770966 134.910690,336.215363 
M136.144165,89.450287 
	C133.840393,95.560532 130.339050,101.055573 127.292023,106.785988 
	C126.535538,108.208656 125.525192,110.064278 127.186333,111.356636 
	C129.009979,112.775421 130.614166,111.349693 132.011673,110.133354 
	C134.339294,108.107437 135.842209,105.514351 136.770706,102.619598 
	C146.247681,73.073692 150.967255,42.783951 150.799377,11.752454 
	C150.790710,10.148699 151.476898,7.948153 149.039688,7.199522 
	C147.070740,7.979873 147.409225,9.643460 147.396301,11.072680 
	C147.312027,20.396149 147.279251,29.701424 146.460220,39.020588 
	C144.968765,55.990639 142.720306,72.756042 136.144165,89.450287 
M70.828667,466.381958 
	C73.157753,467.201965 75.427933,468.169739 77.698181,469.118500 
	C82.302658,471.042725 87.061394,473.397583 93.304565,472.033539 
	C77.329620,462.790680 27.636120,445.590729 22.658777,447.996490 
	C38.532482,455.031647 54.165543,461.113403 70.828667,466.381958 
M150.669022,244.510544 
	C150.589706,227.836655 153.564011,211.462265 155.618286,194.998611 
	C150.032837,220.723190 148.904282,246.736832 150.665039,272.927948 
	C150.665039,263.787567 150.665039,254.647156 150.669022,244.510544 
M31.699776,371.588196 
	C31.755695,368.281189 33.385994,365.030701 31.974712,360.482330 
	C30.230972,369.980469 30.147520,378.395844 30.532675,386.841858 
	C30.909786,382.061035 31.286898,377.280212 31.699776,371.588196 
M125.814819,95.310509 
	C126.263458,93.951714 126.049393,92.451920 124.454613,93.764801 
	C121.583534,96.128387 119.377747,99.147148 119.548996,104.071289 
	C122.907738,101.702492 124.023819,98.608200 125.814819,95.310509 
z"/>
<path fill="#000000" opacity="1.000000" stroke="none" 
	d="
M133.000977,153.556946 
	C133.752090,156.815430 132.976364,159.548431 132.419937,162.314880 
	C131.173950,168.509460 130.593155,168.921188 124.236023,167.561676 
	C124.450005,169.119034 126.467522,168.169113 126.524170,169.712952 
	C125.494926,171.014236 123.962112,170.232178 122.657066,169.929672 
	C112.152473,167.494797 101.642426,165.075317 91.185043,162.448105 
	C85.105545,160.920746 83.553856,157.639328 85.630539,151.630646 
	C86.064178,150.375977 86.529434,149.132126 86.987846,147.886139 
	C88.570839,143.583389 92.701485,142.232681 96.070488,142.955017 
	C107.901123,145.491592 119.551727,148.870422 131.257462,151.979248 
	C131.842499,152.134628 132.303528,152.756897 133.000977,153.556946 
z"/>
<path fill="#000000" opacity="1.000000" stroke="none" 
	d="
M63.150574,231.206268 
	C67.545349,224.974304 75.582329,222.586105 82.217110,225.190140 
	C83.806747,225.814041 84.845741,226.580551 84.224564,228.473267 
	C83.634552,230.270966 82.304848,229.926819 80.971428,229.627182 
	C79.197891,229.228668 77.434708,228.754181 75.641510,228.478882 
	C70.938835,227.756927 67.115723,228.968445 64.848389,233.546890 
	C64.366333,234.520309 63.952133,235.756638 62.392368,235.676544 
	C61.324326,234.117172 62.810516,232.907394 63.150574,231.206268 
z"/>
</svg>