<svg version="1.1" id="Layer_1" xmlns="http://www.w3.org/2000/svg" xmlns:xlink="http://www.w3.org/1999/xlink" x="0px" y="0px"
	 width="100%" viewBox="0 0 592 592" enable-background="new 0 0 592 592" xml:space="preserve">
<path fill="#000000" opacity="1.000000" stroke="none" 
	d="
M490.041199,66.035744 
	C472.102020,85.547699 454.361511,104.761726 436.701660,124.049599 
	C412.405975,150.585007 388.168213,177.173431 363.927490,203.759094 
	C363.306396,204.440323 362.318024,205.007050 362.667786,207.118561 
	C400.228302,192.634811 437.535309,178.053223 474.989868,163.861069 
	C512.327820,149.713104 549.181030,134.183273 588.032898,121.955124 
	C587.759277,127.640800 584.517639,129.450394 581.864319,131.511734 
	C571.961731,139.204865 560.985718,145.220383 550.028015,151.202209 
	C501.894531,177.478287 452.177795,200.511581 402.179138,222.946091 
	C373.009888,236.034409 343.645691,248.677658 313.907166,260.433105 
	C307.855438,262.825287 304.806641,268.551239 300.398682,272.764557 
	C276.360382,295.741241 263.224396,325.224945 251.161270,355.346649 
	C250.604385,356.737183 249.862381,358.058716 249.372406,359.469940 
	C246.729950,367.080841 241.920380,372.300018 233.783630,374.081512 
	C232.014587,374.468842 230.367081,375.387482 228.640350,375.995392 
	C212.558945,381.656982 205.059998,393.771759 202.200027,409.937958 
	C199.803070,423.487030 201.052719,437.226624 199.294418,450.746704 
	C195.039108,483.466858 163.397949,501.734161 139.073853,496.664062 
	C131.134583,495.009216 122.953339,494.940887 114.736832,496.238770 
	C94.684486,499.406250 81.653946,513.396973 80.298607,533.765076 
	C79.766891,541.755859 79.799652,549.739258 80.060051,557.736084 
	C80.168190,561.057190 80.159058,564.418091 79.758629,567.706787 
	C79.501640,569.817444 79.890907,573.035706 76.661240,573.163269 
	C73.825226,573.275330 73.054436,570.457947 72.420113,568.273010 
	C65.580070,544.712036 67.071289,522.176086 81.136368,501.356720 
	C83.737961,497.505798 86.635147,493.796844 89.797935,490.396271 
	C94.613205,485.218933 96.014366,479.132935 95.399223,472.413330 
	C94.289925,460.295898 93.839752,448.238525 95.536224,436.090790 
	C98.714561,413.332123 116.961746,394.193481 139.955490,390.779236 
	C164.412399,387.147705 187.496857,379.882233 209.231415,367.882355 
	C220.724091,361.537079 228.136658,353.041321 231.617722,340.213745 
	C236.800995,321.113647 242.906189,302.258362 248.895950,283.386749 
	C250.164200,279.390930 247.801117,278.733917 245.294998,277.831207 
	C234.582901,273.972656 223.475357,271.952393 212.182098,270.769501 
	C193.072845,268.767914 173.999954,268.364777 154.903076,271.120514 
	C141.512558,273.052826 130.337326,279.197205 120.634422,288.281769 
	C112.753876,295.660095 105.781075,304.010071 95.975708,309.215057 
	C91.322533,311.685120 89.990929,316.745789 89.545174,321.623505 
	C89.048531,327.057983 85.452019,328.395233 81.096588,329.079407 
	C76.841202,329.747864 75.026672,326.783447 73.861534,323.574280 
	C71.718056,317.670471 67.862015,314.958252 61.530010,313.644012 
	C36.579472,308.465454 20.054804,288.639679 20.036758,263.203735 
	C20.015570,233.331818 42.876961,210.651443 70.002846,208.567017 
	C83.986084,207.492523 96.342560,211.211487 107.392853,219.601578 
	C117.475975,227.257309 127.639511,234.821060 137.464905,242.798172 
	C146.376633,250.033478 156.672836,252.237198 167.710907,252.676178 
	C179.225616,253.134109 190.696060,252.163437 202.151932,251.475952 
	C215.256927,250.689514 228.367798,249.441803 241.368515,247.624695 
	C256.262848,245.542892 270.349182,240.220642 284.440277,235.157669 
	C286.381592,234.460144 288.078613,232.827469 289.638977,231.361816 
	C342.700806,181.519867 395.669464,131.578552 448.806305,81.816780 
	C464.973846,66.676140 481.256927,51.629452 499.040161,38.335659 
	C503.454803,35.035492 508.101746,32.114933 512.987793,29.567856 
	C516.169189,27.909386 519.442139,27.040125 524.323120,28.479889 
	C513.186218,41.754162 501.427826,53.497723 490.041199,66.035744 
M106.285271,447.387451 
	C106.949234,463.176361 113.951202,475.315643 128.170074,482.264069 
	C142.222992,489.131409 156.091263,487.241394 168.732452,478.228363 
	C185.377029,466.360962 191.187714,442.947083 181.958267,424.736511 
	C175.372192,411.741577 164.608170,403.999512 149.931747,403.440308 
	C125.167931,402.496704 106.543869,421.190063 106.285271,447.387451 
M92.353546,294.879913 
	C103.850983,287.159790 110.515266,276.425049 111.592728,262.623322 
	C113.282570,240.977432 95.634399,220.241837 69.315056,223.077499 
	C43.705025,225.836716 25.970184,255.877350 36.825958,279.192810 
	C46.692551,300.383759 69.926926,307.188629 92.353546,294.879913 
M294.265747,259.493103 
	C295.611267,258.869995 297.166290,258.496521 298.262451,257.576355 
	C301.384552,254.955627 301.805817,251.475586 299.727448,248.211212 
	C297.527863,244.756424 294.083038,244.443939 290.535126,246.266357 
	C287.845795,247.647781 287.027527,250.064850 287.211395,252.947418 
	C287.465973,256.938751 290.007874,258.700592 294.265747,259.493103 
z"/>
</svg>