<svg version="1.1" id="Layer_1" xmlns="http://www.w3.org/2000/svg" xmlns:xlink="http://www.w3.org/1999/xlink" x="0px" y="0px"
	 width="100%" viewBox="0 0 736 736" enable-background="new 0 0 736 736" xml:space="preserve">
<path fill="#000000" opacity="1.000000" stroke="none" 
	d="
M496.885376,400.770508 
	C473.902344,456.416504 448.034637,510.280426 420.743835,563.493164 
	C414.083252,576.480164 406.022736,588.064575 394.108643,596.606689 
	C383.539185,604.184692 372.084137,609.255432 358.639984,606.329590 
	C340.195160,602.315491 328.866089,583.483826 333.363739,565.077820 
	C336.597046,551.846008 343.960724,540.705688 350.947693,529.399658 
	C393.623779,460.342896 433.216858,389.623047 466.170532,315.348633 
	C487.735229,266.743866 506.096588,217.005066 517.780334,164.986435 
	C519.293335,158.250305 522.067749,152.126862 529.408203,149.987549 
	C536.785400,147.837540 544.406860,152.950745 547.099365,161.723587 
	C549.257385,168.755173 549.962280,176.047791 550.301758,183.376053 
	C551.771667,215.108170 546.600891,246.040863 538.987793,276.662689 
	C528.443176,319.075958 513.462463,359.993591 496.885376,400.770508 
M387.088348,558.657593 
	C383.987732,552.786926 380.196014,550.564758 374.376312,551.207703 
	C369.651459,551.729675 365.845978,555.072205 364.673584,559.987915 
	C363.515839,564.842102 365.068451,568.921997 368.964417,571.916016 
	C372.842926,574.896484 377.146088,575.548340 381.533752,572.973816 
	C386.768097,569.902405 388.539673,565.247437 387.088348,558.657593 
M535.489441,208.042664 
	C538.687683,204.645325 539.668457,200.872742 536.958984,196.793594 
	C534.783630,193.518524 531.674133,191.720123 527.617676,192.560745 
	C523.927612,193.325409 521.275024,195.505371 520.440125,199.295349 
	C519.585510,203.174911 520.607971,206.600647 523.946960,208.961151 
	C527.646851,211.576797 531.374023,211.344971 535.489441,208.042664 
z"/>
<path fill="#000000" opacity="1.000000" stroke="none" 
	d="
M383.419128,342.508820 
	C331.647644,369.044556 280.208649,395.411865 228.762772,421.765717 
	C221.091400,425.695465 213.001556,428.174133 204.305756,427.747101 
	C191.969437,427.141418 182.809174,420.776093 176.505692,410.633942 
	C167.605804,396.314178 163.937088,380.684021 166.811218,363.812073 
	C167.829941,357.832001 170.813705,353.722321 176.553497,350.953400 
	C236.872726,321.854248 297.089478,292.542725 357.352600,263.327148 
	C404.122284,240.653137 450.916290,218.029205 497.707581,195.399704 
	C499.179504,194.687851 500.587860,193.686722 502.364441,193.848129 
	C503.783508,195.012619 502.925873,196.293625 502.551270,197.488358 
	C498.467896,210.511353 494.330322,223.517471 490.281036,236.551010 
	C489.481140,239.125565 487.981506,240.723022 485.510010,241.878220 
	C476.910706,245.897507 468.310913,249.937866 459.900421,254.332184 
	C452.488068,258.204987 451.470337,260.851257 453.462677,268.836548 
	C455.614105,277.459656 457.001282,286.110382 455.266266,294.991882 
	C453.782837,302.585724 450.200470,308.391937 442.909637,312.036530 
	C423.092743,321.942627 403.456970,332.211121 383.419128,342.508820 
M456.961639,235.424835 
	C465.000732,231.390747 473.006287,227.287628 481.095367,223.356430 
	C484.343201,221.778015 485.829224,219.550537 485.227966,215.757706 
	C482.869354,215.865906 481.194000,217.017700 479.439087,217.885391 
	C448.238953,233.311615 417.051208,248.762878 385.851624,264.190155 
	C324.944275,294.307098 264.049561,324.449677 203.097778,354.476410 
	C195.356003,358.290253 190.301926,363.931488 188.793869,372.456085 
	C187.245300,381.209534 189.410294,389.346313 193.129852,397.160400 
	C190.253479,380.447205 194.052048,370.582336 208.696121,361.635010 
	C219.328537,355.138763 230.662384,349.766907 241.803024,344.130035 
	C313.279205,307.965027 384.788452,271.865387 456.961639,235.424835 
z"/>
<path fill="#000000" opacity="1.000000" stroke="none" 
	d="
M585.913147,195.015305 
	C576.593628,199.089005 567.622131,203.014160 558.398560,207.049622 
	C556.931091,204.608521 557.681030,202.255157 557.690857,200.062576 
	C557.718323,193.893112 557.716614,187.725555 556.854309,181.609314 
	C556.244812,177.286514 557.824524,175.566101 562.282288,175.654938 
	C572.953003,175.867599 583.591492,175.275497 593.963806,172.461411 
	C608.655396,168.475494 621.470398,160.737915 633.882751,152.234741 
	C636.371948,150.529495 639.050659,148.104828 641.875244,150.789093 
	C644.912781,153.675674 643.806458,157.339706 641.767273,160.390579 
	C637.697021,166.479965 631.786682,170.573273 625.710083,174.421860 
	C613.151306,182.375854 599.699768,188.609283 585.913147,195.015305 
z"/>
</svg>