<svg version="1.1" id="Layer_1" xmlns="http://www.w3.org/2000/svg" xmlns:xlink="http://www.w3.org/1999/xlink" x="0px" y="0px"
	 width="100%" viewBox="0 0 624 624" enable-background="new 0 0 624 624" xml:space="preserve">
<path  opacity="1.000000" stroke="none" 
	d="
M190.078918,309.819824 
	C186.358749,294.888550 182.834946,280.335388 180.312439,265.561035 
	C178.555374,255.269897 181.283279,249.564240 190.888290,245.720062 
	C194.979370,244.082703 195.836624,241.758743 195.793335,237.825623 
	C195.626419,222.663330 195.892441,207.495895 195.690506,192.334473 
	C195.421127,172.108185 195.114532,151.925018 206.345352,132.177765 
	C196.390732,132.177765 187.633591,132.177765 178.876450,132.177765 
	C178.705002,131.524170 178.533569,130.870575 178.362122,130.216980 
	C190.661667,122.093887 202.961227,113.970795 215.530243,105.669739 
	C212.759705,103.401375 209.862808,105.296722 207.074799,102.942497 
	C220.435547,88.598587 235.813232,77.545021 254.043198,70.453148 
	C272.317932,63.343849 291.244293,62.176044 310.504852,64.294975 
	C311.196747,62.763241 308.820068,62.051132 310.125580,60.142208 
	C310.658173,59.458519 311.829346,59.715199 312.928101,60.097431 
	C332.111725,66.770920 351.751221,72.130844 370.558685,79.880074 
	C385.846863,86.179237 399.758301,94.409607 409.674286,108.230881 
	C414.909027,115.527260 418.335571,123.561493 420.626801,132.160431 
	C421.275970,134.596741 421.968170,137.036194 424.367767,138.400116 
	C440.982941,147.844101 443.452667,163.066422 441.804840,180.218246 
	C439.895599,200.091309 438.383362,220.002304 436.606079,239.888550 
	C436.396912,242.228577 437.666107,243.106537 439.339813,244.076279 
	C455.062622,253.185913 456.385590,255.498077 452.300690,273.416809 
	C448.936859,288.172363 444.625610,302.711609 440.752228,317.351501 
	C439.347260,322.661804 437.929382,327.970276 436.646027,333.310516 
	C436.036072,335.848846 435.610260,338.465607 436.752991,341.136932 
	C440.346954,340.439117 441.299011,336.476257 445.417816,335.503082 
	C445.132782,342.357758 444.280426,348.856720 441.683624,354.852509 
	C439.099884,360.817963 438.106537,366.853088 437.962158,373.272644 
	C437.545746,391.791229 441.259949,410.145050 440.291840,428.640869 
	C439.199432,449.512115 435.724396,469.973419 427.076019,489.229645 
	C424.529663,494.899231 420.758728,499.799988 416.459778,504.271606 
	C415.339966,505.436401 414.350647,506.919800 411.839508,506.834564 
	C409.652740,502.229736 411.664459,496.737762 409.299072,491.407104 
	C404.987183,500.736176 401.079803,509.828033 395.697845,518.176941 
	C383.528015,537.055908 367.348633,551.577454 348.218567,563.102478 
	C344.093628,565.587585 342.607910,562.285339 339.987793,560.163330 
	C338.396240,563.745483 340.186676,567.533569 338.786774,570.735352 
	C338.221863,570.735352 337.729095,570.870789 337.608551,570.716125 
	C325.759796,555.515503 309.288177,547.364258 291.851166,540.701355 
	C280.878540,536.508606 269.918213,532.293152 259.088989,526.419250 
	C260.339020,529.827271 263.735199,531.102600 264.122406,535.245728 
	C241.282516,526.286194 223.873611,512.083069 213.012299,490.441772 
	C202.375351,469.247528 200.389969,446.295227 200.486877,422.900757 
	C197.319305,423.554382 196.357010,428.125336 193.305954,426.356110 
	C190.078232,424.484375 192.598663,421.165009 192.736115,418.579346 
	C193.442657,405.288422 194.742081,392.050140 197.295441,378.962616 
	C198.370407,373.452789 196.267471,368.452271 194.594284,363.417572 
	C192.084808,355.866364 188.305756,348.648010 188.703644,340.359711 
	C188.789429,338.572601 188.396683,336.628357 190.280243,335.241119 
	C193.866043,336.187836 194.305130,340.826813 199.359833,342.488251 
	C196.754303,330.971954 191.907944,320.970367 190.078918,309.819824 
M420.037079,294.691254 
	C420.801849,288.256958 421.795410,281.840118 422.287659,275.385040 
	C423.653137,257.479279 421.351807,240.443756 409.569550,225.892456 
	C407.453461,223.279068 406.836517,220.532547 407.299530,217.091583 
	C408.835663,205.674911 406.376587,195.171387 398.605103,186.398117 
	C396.420044,183.931396 396.030731,181.782700 397.016724,178.756760 
	C399.620575,170.765610 401.952698,162.685959 404.525085,154.206009 
	C403.802612,154.587540 403.575958,154.629303 403.531281,154.742767 
	C403.043640,155.980743 402.631348,157.249878 402.110352,158.472977 
	C397.068817,170.308975 388.278839,177.466446 375.476624,179.232590 
	C362.513489,181.020920 349.547241,179.595032 336.604309,178.678253 
	C317.309479,177.311584 298.682922,171.576263 279.436401,169.828918 
	C264.195892,168.445267 250.265427,171.730576 238.299210,181.528793 
	C230.633682,187.805527 225.080063,195.621262 226.489578,206.068573 
	C227.975754,217.083954 225.126251,226.803452 219.811462,236.150314 
	C216.832916,241.388504 214.381790,246.862640 213.344193,252.840286 
	C208.862396,278.660278 213.665009,303.146088 224.459869,326.626160 
	C229.411255,337.396027 236.921341,346.270538 246.559067,353.273773 
	C250.707748,356.288422 254.819611,357.592316 260.016388,355.254791 
	C268.357452,351.502991 276.984863,348.388824 285.480682,344.978821 
	C286.687866,344.494263 288.066284,344.133484 288.431244,342.299835 
	C287.921661,341.469971 287.445496,340.381134 286.697693,339.531372 
	C283.578735,335.987152 285.095581,334.054016 288.843811,332.597443 
	C294.191223,330.519348 298.601593,332.036407 302.511444,335.833801 
	C305.018707,338.268921 307.392456,340.860565 310.052368,343.114990 
	C313.999268,346.460144 318.229065,346.689728 322.275299,343.238373 
	C325.056763,340.865906 327.659149,338.283234 330.336670,335.789276 
	C333.387726,332.947388 336.773956,331.044434 341.154999,331.856354 
	C347.694641,333.068268 348.724762,335.488678 345.046906,340.925476 
	C344.703125,341.433716 344.604584,342.107849 344.434814,342.585083 
	C345.611328,344.527069 347.499329,344.908691 349.143158,345.610107 
	C358.179321,349.465790 367.424072,352.891510 376.219269,357.230927 
	C381.497925,359.835327 385.030090,358.711090 389.078522,355.096527 
	C406.957458,339.133759 416.028961,318.718872 420.037079,294.691254 
M375.568481,438.116302 
	C375.039856,435.835297 375.430084,433.276276 373.373230,430.573212 
	C369.577179,439.016785 368.507874,447.670959 364.880035,456.522736 
	C357.633667,446.999176 353.004730,436.726654 345.430817,428.320312 
	C348.490479,442.003845 352.928680,455.390289 349.812164,469.532776 
	C347.759766,469.429749 347.605011,468.264557 347.270355,467.407867 
	C343.465912,457.668762 337.028229,449.958710 328.988098,443.455353 
	C317.720612,434.341431 305.141022,426.976471 294.226746,417.387451 
	C293.817780,417.028168 293.049927,417.077362 292.593079,416.969971 
	C290.705566,418.872681 291.789642,420.585602 292.315399,422.290466 
	C295.407837,432.317627 301.834961,440.124725 309.089752,447.356293 
	C316.632935,454.875275 325.080872,461.494171 331.650940,469.976990 
	C332.801788,471.462921 334.735931,472.624023 334.279175,474.984802 
	C332.570618,476.029938 331.290833,474.755676 330.046478,474.196533 
	C315.294739,467.568298 300.219360,461.852692 284.747345,457.100067 
	C275.152252,454.152710 266.105103,449.854248 258.386475,443.226868 
	C254.572327,439.951904 250.892395,436.520599 247.420868,433.401855 
	C248.582275,457.147308 259.423767,477.005341 276.083069,494.229889 
	C251.423325,479.402466 241.713028,455.611053 236.476959,428.070404 
	C235.341293,434.577148 237.108887,440.292267 234.945831,445.467529 
	C234.280869,445.593628 233.615906,445.719696 232.950943,445.845795 
	C227.002258,431.369446 221.053574,416.893066 215.104904,402.416718 
	C214.646881,402.543823 214.188858,402.670929 213.730835,402.798065 
	C210.282806,424.523926 209.601379,446.132751 216.406387,467.424774 
	C216.902802,467.417786 217.399216,467.410797 217.895630,467.403809 
	C217.895630,460.002014 217.895630,452.600220 217.895630,444.372894 
	C220.341217,446.394836 220.698639,448.222534 221.337280,449.899231 
	C225.188889,460.011383 228.912872,470.174988 232.944916,480.214783 
	C236.763733,489.723633 241.808029,498.553711 249.544098,505.479004 
	C255.574356,510.877289 262.056824,515.653442 271.213318,518.045532 
	C250.085678,501.547607 242.969482,484.512787 244.496033,474.935211 
	C250.031830,488.878754 258.283600,499.406128 270.923248,505.997711 
	C283.286682,512.445312 296.540924,515.542908 310.446899,517.031250 
	C310.433258,514.586975 308.963684,513.808960 308.012085,512.747498 
	C302.006897,506.049316 295.925293,499.419556 289.929291,492.713226 
	C288.746155,491.389923 286.596985,490.220459 288.660980,487.074615 
	C298.342743,494.918152 307.819794,502.595825 317.296844,510.273529 
	C317.414642,510.152130 317.532440,510.030701 317.650238,509.909302 
	C307.587585,498.537720 297.524963,487.166168 287.462311,475.794617 
	C287.855682,475.393127 288.249054,474.991638 288.642426,474.590179 
	C312.868256,485.520569 333.962494,500.673615 351.102448,521.381104 
	C342.616608,508.039642 334.130737,494.698212 325.644897,481.356781 
	C326.322327,480.845703 326.999786,480.334625 327.677246,479.823517 
	C336.726929,489.549286 345.776611,499.275055 355.687500,509.926361 
	C358.059723,491.702698 370.107605,480.446716 380.208344,467.972046 
	C384.204193,463.037079 387.576447,457.697693 389.894653,451.723633 
	C390.539276,450.062500 390.641663,447.227020 393.668579,448.302032 
	C396.750641,449.396667 395.422852,451.821442 394.818878,453.782990 
	C391.733124,463.804504 388.535034,473.791382 385.432831,483.807892 
	C383.014099,491.617615 380.678253,499.453003 378.305603,507.277008 
	C385.538483,498.954834 389.925690,489.296082 393.361359,479.209839 
	C400.126099,459.350250 404.274231,439.077209 401.626678,417.955750 
	C401.001587,412.968781 400.427338,407.805908 396.763977,403.079041 
	C391.260803,408.385162 388.398010,414.531067 387.381073,421.314087 
	C385.798218,431.871582 383.583130,442.246063 380.447205,452.437744 
	C380.069366,453.665802 380.111877,455.191772 377.510864,455.290100 
	C376.033417,450.047791 375.785156,444.524994 375.568481,438.116302 
M330.489716,108.011429 
	C311.988739,89.370842 285.478271,82.518570 264.829681,85.626648 
	C267.414856,86.291260 269.650543,86.887535 271.897003,87.440033 
	C285.731110,90.842430 298.980133,95.739029 311.077423,103.355354 
	C324.389404,111.736427 335.130768,122.333458 339.600708,138.027725 
	C339.975708,139.344406 341.035095,140.785568 338.989685,142.275543 
	C334.533020,138.123016 330.134857,133.876923 325.578705,129.807755 
	C312.216370,117.873718 298.159576,106.920319 281.008270,100.886757 
	C270.755127,97.279846 260.297180,95.684906 248.622559,100.320305 
	C261.516510,101.665604 273.213318,103.190933 284.247070,107.742523 
	C292.589264,111.183815 299.821289,116.072151 304.628052,123.932213 
	C305.574127,125.479263 307.086121,127.099205 305.922516,129.552292 
	C300.778137,127.717201 297.164429,123.106987 290.793396,121.771278 
	C296.792755,132.895950 302.097626,143.050552 307.712250,153.030930 
	C311.366943,159.527390 316.597015,164.686493 323.022156,168.499496 
	C326.660187,170.658493 330.486053,172.476501 335.357727,171.930084 
	C330.732422,161.941803 323.565369,153.945480 318.908844,144.532425 
	C319.230957,144.227386 319.553070,143.922333 319.875183,143.617279 
	C333.821991,153.179886 347.768768,162.742508 362.646271,172.943268 
	C362.470795,160.647766 358.890991,150.155151 359.973877,139.201035 
	C364.980499,146.294327 366.147308,154.971649 370.248138,162.904251 
	C373.258667,156.404556 371.797821,149.362762 375.260529,142.672211 
	C378.497955,146.652878 376.927155,150.675690 377.572662,154.192535 
	C378.266418,157.972336 378.356567,161.862900 378.758911,166.235550 
	C390.604584,151.283966 391.779694,120.391708 384.315094,113.538597 
	C382.481384,119.542664 382.330841,125.734230 381.304779,131.774002 
	C381.018097,133.461578 381.761230,136.046127 379.285767,136.262787 
	C376.305359,136.523666 376.913544,133.652603 376.529114,131.860092 
	C373.901917,119.610107 371.038025,107.443016 363.491028,97.054482 
	C361.005768,93.633575 358.343842,90.311729 353.121643,88.321686 
	C360.815613,102.495636 368.636414,115.552391 366.852692,131.559860 
	C361.566193,123.018204 357.168701,114.062874 350.958679,106.241333 
	C344.592743,98.223328 337.449890,91.061974 328.361511,86.077896 
	C319.579865,81.262001 310.329895,78.416412 300.162750,79.063469 
	C308.314117,83.700523 316.703735,87.704224 323.941986,93.708923 
	C332.652802,100.935249 339.319000,110.621048 339.020447,117.102539 
	C336.131256,114.000481 333.567505,111.247864 330.489716,108.011429 
M295.372650,160.745880 
	C294.197357,155.465530 290.541473,150.859451 290.267090,145.133591 
	C293.900146,144.835800 294.638092,148.226685 297.241272,148.712967 
	C286.737946,123.155075 261.112610,109.211365 248.225311,114.571716 
	C262.503754,118.307922 271.216278,126.212936 271.065155,135.903046 
	C261.132202,134.148819 251.277512,132.408417 241.422821,130.667999 
	C241.876572,131.712799 242.566055,132.079208 243.281204,132.385712 
	C255.916534,137.801086 267.847931,144.215912 277.472839,154.408493 
	C281.395447,158.562469 286.752533,160.843460 292.070526,162.890442 
	C293.589386,163.475037 295.457886,164.485703 295.372650,160.745880 
M343.557648,362.820801 
	C356.736389,367.148499 369.915131,371.476196 384.008179,376.104126 
	C381.814941,373.296356 378.549469,373.592957 377.395721,370.072449 
	C385.340363,370.566559 392.665039,373.915741 400.333405,372.060486 
	C395.991974,370.392365 391.554718,369.190155 387.180450,367.791077 
	C372.679932,363.153259 359.286133,356.063416 345.896729,348.979584 
	C339.794678,345.751251 333.731232,345.266266 327.423828,348.729553 
	C329.909760,351.585907 334.498444,349.982971 336.522766,353.615021 
	C332.861206,356.778687 327.833282,352.422943 324.122528,356.297180 
	C330.554962,358.459167 336.680237,360.517914 343.557648,362.820801 
M264.885040,371.440155 
	C278.755280,367.216858 291.665710,360.854462 304.332092,353.780304 
	C301.493713,353.745911 298.639832,355.101288 295.629211,353.438354 
	C297.647949,350.191040 301.753296,350.441193 303.949585,347.571136 
	C299.186157,345.601929 294.965546,345.632324 290.663086,347.862335 
	C271.432190,357.829742 251.918625,367.108429 230.576263,371.786835 
	C230.136948,371.883118 229.754074,372.237030 228.160477,373.147308 
	C238.103333,372.164246 246.633621,371.320862 254.660706,370.527222 
	C256.010620,372.068542 253.530090,372.486633 254.980423,373.636139 
	C257.950958,372.977783 261.024200,372.296692 264.885040,371.440155 
M413.324005,409.189575 
	C411.511566,406.700775 409.820190,404.098328 406.875824,401.826416 
	C405.422577,408.636627 407.361511,414.264404 409.922913,419.602783 
	C414.890503,429.955780 419.382629,440.461365 422.340790,451.584930 
	C422.829163,453.421448 423.592316,455.184814 424.643372,458.153839 
	C426.163330,439.944611 423.113983,424.135101 413.324005,409.189575 
M256.907257,419.560364 
	C255.613144,417.528076 254.319031,415.495819 252.754089,413.038239 
	C250.203308,427.427307 266.937439,446.177246 284.154510,448.176483 
	C273.059052,440.214508 264.222229,431.077698 256.907257,419.560364 
M430.268402,291.495636 
	C430.440033,296.563446 429.841675,301.674438 430.972290,308.034760 
	C436.004272,299.694244 438.051178,291.471283 442.207336,282.775543 
	C438.928955,285.603210 439.153046,289.368011 435.634552,290.841583 
	C433.831604,287.295410 435.641022,283.308167 433.953613,280.100220 
	C430.725464,273.963165 430.831573,268.451080 436.900055,263.691376 
	C431.612610,264.467712 430.548370,268.041626 430.421997,272.009705 
	C430.225891,278.167572 430.306763,284.334290 430.268402,291.495636 
M393.729126,147.134491 
	C391.107666,153.500931 388.486237,159.867355 385.492676,167.137558 
	C396.350372,161.666290 404.206482,142.003769 399.933807,132.412933 
	C397.886444,137.292175 395.968262,141.863556 393.729126,147.134491 
M216.558228,375.555573 
	C215.475403,375.414032 214.544418,374.287933 213.295074,375.019867 
	C221.689575,386.729034 256.536133,384.248047 267.830811,374.959686 
	C250.512802,378.775055 233.889984,382.983673 216.558228,375.555573 
M327.961792,422.536194 
	C323.253113,418.088470 318.425751,413.825714 311.535004,411.098145 
	C314.416473,420.170502 327.278748,432.315063 337.388458,436.218933 
	C335.376251,431.085236 332.045654,426.980499 327.961792,422.536194 
M408.850647,381.472504 
	C413.310822,380.442871 417.118378,378.224487 420.464478,374.872620 
	C400.735077,382.816956 381.260132,379.543518 361.825012,373.811737 
	C376.542389,380.630646 391.617645,385.159637 408.850647,381.472504 
M203.290894,280.291321 
	C202.977264,276.467377 202.663620,272.643402 202.349991,268.819458 
	C202.264114,272.953674 200.079666,283.540222 197.624863,288.977264 
	C195.558334,293.554321 197.107437,298.649628 202.027573,302.544830 
	C203.146790,295.271545 203.195663,288.177216 203.290894,280.291321 
z"/>
<path fill="#000000" opacity="1.000000" stroke="none" 
	d="
M397.402222,271.531311 
	C387.853546,273.264526 378.718658,274.914001 369.583801,276.563446 
	C369.554504,276.825714 369.525238,277.087982 369.495972,277.350250 
	C375.021545,278.395416 380.547150,279.440552 387.325775,280.722717 
	C382.786133,283.993042 378.741028,284.695953 374.811188,285.126404 
	C367.122559,285.968506 359.503021,285.421722 352.256561,282.308624 
	C351.339172,281.914520 350.403198,281.563629 349.475159,281.194427 
	C336.705872,276.114685 336.149933,276.313904 329.087189,288.357483 
	C328.685699,289.042023 328.139618,289.641754 327.429779,290.589478 
	C324.676636,287.683838 325.229980,284.135986 324.964325,281.144684 
	C324.001801,270.305450 324.836731,259.548462 327.857208,249.013184 
	C328.813080,245.679199 330.265045,243.863144 334.245789,243.425690 
	C350.602417,241.628204 366.908630,239.363449 383.222137,237.186340 
	C388.911346,236.427109 393.521545,239.132507 398.019287,241.537674 
	C400.425781,241.040070 398.892365,238.691284 400.193848,237.831696 
	C404.359467,236.480759 414.449677,248.817245 414.449615,255.718582 
	C407.504547,256.357513 401.069733,252.703018 393.349762,252.980255 
	C397.965973,258.036591 402.156799,262.626953 406.214142,267.071136 
	C404.228821,271.023346 400.958344,271.101074 397.402222,271.531311 
M381.894806,242.415421 
	C374.037933,241.970627 366.256439,242.115448 357.670959,245.509491 
	C369.362213,245.313644 379.872803,246.274582 390.397949,244.500031 
	C387.850739,243.842789 385.303497,243.185532 381.894806,242.415421 
z"/>
<path fill="#000000" opacity="1.000000" stroke="none" 
	d="
M261.370911,277.490540 
	C258.803314,274.396515 254.890442,275.159180 251.491943,274.431152 
	C245.160065,273.074738 238.706512,272.293915 232.321228,271.173065 
	C230.909927,270.925323 229.571976,270.259674 227.574020,269.570404 
	C232.676666,262.711395 239.680145,258.503601 245.287903,251.534637 
	C236.057449,253.134781 227.597183,254.601410 219.131882,256.068909 
	C218.187454,249.067688 221.354965,243.009171 227.550735,239.568695 
	C232.337082,236.910843 237.522461,235.781342 242.958649,236.496674 
	C256.638885,238.296799 270.315002,240.139053 283.964294,242.157059 
	C288.285126,242.795868 292.608917,242.895889 296.909241,242.761276 
	C301.351501,242.622177 303.580994,244.553757 304.812012,248.630203 
	C307.347870,257.027771 307.945068,265.617493 307.741882,274.294617 
	C307.623199,279.361725 307.222565,284.422211 306.875641,290.839172 
	C301.134827,285.614899 298.511322,279.530090 293.683167,274.580994 
	C279.209961,285.052368 263.640381,288.714661 245.622452,281.639526 
	C250.973618,278.357025 256.458344,279.528473 261.370911,277.490540 
M230.564224,243.181824 
	C227.625076,246.161255 230.853058,245.578613 232.097626,245.577454 
	C242.246170,245.568024 252.406937,245.693512 262.537018,245.211472 
	C266.566895,245.019745 270.781586,246.574051 274.703522,244.549301 
	C269.161530,244.462341 263.787659,243.424133 258.354279,242.636002 
	C249.328247,241.326721 240.203278,240.017883 230.564224,243.181824 
z"/>
</svg>